<svg>
<polygon points="150,0 300,259.808 0,259.808" fill="red" />
<polygon points="5,251.147 10,259.808 0,259.808" fill="green" />
<polygon points="10,259.808 5,251.147 15,251.147" fill="green" />
<polygon points="15,251.147 20,259.808 10,259.808" fill="green" />
<polygon points="20,259.808 15,251.147 25,251.147" fill="green" />
<polygon points="25,251.147 30,259.808 20,259.808" fill="green" />
<polygon points="30,259.808 25,251.147 35,251.147" fill="green" />
<polygon points="35,251.147 40,259.808 30,259.808" fill="green" />
<polygon points="40,259.808 35,251.147 45,251.147" fill="green" />
<polygon points="45,251.147 50,259.808 40,259.808" fill="green" />
<polygon points="50,259.808 45,251.147 55,251.147" fill="green" />
<polygon points="55,251.147 60,259.808 50,259.808" fill="green" />
<polygon points="60,259.808 55,251.147 65,251.147" fill="green" />
<polygon points="65,251.147 70,259.808 60,259.808" fill="green" />
<polygon points="70,259.808 65,251.147 75,251.147" fill="green" />
<polygon points="75,251.147 80,259.808 70,259.808" fill="green" />
<polygon points="80,259.808 75,251.147 85,251.147" fill="green" />
<polygon points="85,251.147 90,259.808 80,259.808" fill="green" />
<polygon points="90,259.808 85,251.147 95,251.147" fill="green" />
<polygon points="95,251.147 100,259.808 90,259.808" fill="green" />
<polygon points="100,259.808 95,251.147 105,251.147" fill="green" />
<polygon points="105,251.147 110,259.808 100,259.808" fill="green" />
<polygon points="110,259.808 105,251.147 115,251.147" fill="green" />
<polygon points="115,251.147 120,259.808 110,259.808" fill="green" />
<polygon points="120,259.808 115,251.147 125,251.147" fill="green" />
<polygon points="125,251.147 130,259.808 120,259.808" fill="green" />
<polygon points="130,259.808 125,251.147 135,251.147" fill="green" />
<polygon points="135,251.147 140,259.808 130,259.808" fill="green" />
<polygon points="140,259.808 135,251.147 145,251.147" fill="green" />
<polygon points="145,251.147 150,259.808 140,259.808" fill="green" />
<polygon points="150,259.808 145,251.147 155,251.147" fill="green" />
<polygon points="155,251.147 160,259.808 150,259.808" fill="green" />
<polygon points="160,259.808 155,251.147 165,251.147" fill="green" />
<polygon points="165,251.147 170,259.808 160,259.808" fill="green" />
<polygon points="170,259.808 165,251.147 175,251.147" fill="green" />
<polygon points="175,251.147 180,259.808 170,259.808" fill="green" />
<polygon points="180,259.808 175,251.147 185,251.147" fill="green" />
<polygon points="185,251.147 190,259.808 180,259.808" fill="green" />
<polygon points="190,259.808 185,251.147 195,251.147" fill="green" />
<polygon points="195,251.147 200,259.808 190,259.808" fill="green" />
<polygon points="200,259.808 195,251.147 205,251.147" fill="green" />
<polygon points="205,251.147 210,259.808 200,259.808" fill="green" />
<polygon points="210,259.808 205,251.147 215,251.147" fill="green" />
<polygon points="215,251.147 220,259.808 210,259.808" fill="green" />
<polygon points="220,259.808 215,251.147 225,251.147" fill="green" />
<polygon points="225,251.147 230,259.808 220,259.808" fill="green" />
<polygon points="230,259.808 225,251.147 235,251.147" fill="green" />
<polygon points="235,251.147 240,259.808 230,259.808" fill="green" />
<polygon points="240,259.808 235,251.147 245,251.147" fill="green" />
<polygon points="245,251.147 250,259.808 240,259.808" fill="green" />
<polygon points="250,259.808 245,251.147 255,251.147" fill="green" />
<polygon points="255,251.147 260,259.808 250,259.808" fill="green" />
<polygon points="260,259.808 255,251.147 265,251.147" fill="green" />
<polygon points="265,251.147 270,259.808 260,259.808" fill="green" />
<polygon points="270,259.808 265,251.147 275,251.147" fill="green" />
<polygon points="275,251.147 280,259.808 270,259.808" fill="green" />
<polygon points="280,259.808 275,251.147 285,251.147" fill="green" />
<polygon points="285,251.147 290,259.808 280,259.808" fill="green" />
<polygon points="290,259.808 285,251.147 295,251.147" fill="green" />
<polygon points="295,251.147 300,259.808 290,259.808" fill="green" />
<polygon points="10,242.487 15,251.147 5,251.147" fill="green" />
<polygon points="15,251.147 10,242.487 20,242.487" fill="green" />
<polygon points="20,242.487 25,251.147 15,251.147" fill="green" />
<polygon points="25,251.147 20,242.487 30,242.487" fill="green" />
<polygon points="30,242.487 35,251.147 25,251.147" fill="green" />
<polygon points="35,251.147 30,242.487 40,242.487" fill="green" />
<polygon points="40,242.487 45,251.147 35,251.147" fill="green" />
<polygon points="45,251.147 40,242.487 50,242.487" fill="green" />
<polygon points="50,242.487 55,251.147 45,251.147" fill="green" />
<polygon points="55,251.147 50,242.487 60,242.487" fill="green" />
<polygon points="60,242.487 65,251.147 55,251.147" fill="green" />
<polygon points="65,251.147 60,242.487 70,242.487" fill="green" />
<polygon points="70,242.487 75,251.147 65,251.147" fill="green" />
<polygon points="75,251.147 70,242.487 80,242.487" fill="green" />
<polygon points="80,242.487 85,251.147 75,251.147" fill="green" />
<polygon points="85,251.147 80,242.487 90,242.487" fill="green" />
<polygon points="90,242.487 95,251.147 85,251.147" fill="green" />
<polygon points="95,251.147 90,242.487 100,242.487" fill="green" />
<polygon points="100,242.487 105,251.147 95,251.147" fill="green" />
<polygon points="105,251.147 100,242.487 110,242.487" fill="green" />
<polygon points="110,242.487 115,251.147 105,251.147" fill="green" />
<polygon points="115,251.147 110,242.487 120,242.487" fill="green" />
<polygon points="120,242.487 125,251.147 115,251.147" fill="green" />
<polygon points="125,251.147 120,242.487 130,242.487" fill="green" />
<polygon points="130,242.487 135,251.147 125,251.147" fill="green" />
<polygon points="135,251.147 130,242.487 140,242.487" fill="green" />
<polygon points="140,242.487 145,251.147 135,251.147" fill="green" />
<polygon points="145,251.147 140,242.487 150,242.487" fill="green" />
<polygon points="150,242.487 155,251.147 145,251.147" fill="green" />
<polygon points="155,251.147 150,242.487 160,242.487" fill="green" />
<polygon points="160,242.487 165,251.147 155,251.147" fill="green" />
<polygon points="165,251.147 160,242.487 170,242.487" fill="green" />
<polygon points="170,242.487 175,251.147 165,251.147" fill="green" />
<polygon points="175,251.147 170,242.487 180,242.487" fill="green" />
<polygon points="180,242.487 185,251.147 175,251.147" fill="green" />
<polygon points="185,251.147 180,242.487 190,242.487" fill="green" />
<polygon points="190,242.487 195,251.147 185,251.147" fill="green" />
<polygon points="195,251.147 190,242.487 200,242.487" fill="green" />
<polygon points="200,242.487 205,251.147 195,251.147" fill="green" />
<polygon points="205,251.147 200,242.487 210,242.487" fill="green" />
<polygon points="210,242.487 215,251.147 205,251.147" fill="green" />
<polygon points="215,251.147 210,242.487 220,242.487" fill="green" />
<polygon points="220,242.487 225,251.147 215,251.147" fill="green" />
<polygon points="225,251.147 220,242.487 230,242.487" fill="green" />
<polygon points="230,242.487 235,251.147 225,251.147" fill="green" />
<polygon points="235,251.147 230,242.487 240,242.487" fill="green" />
<polygon points="240,242.487 245,251.147 235,251.147" fill="green" />
<polygon points="245,251.147 240,242.487 250,242.487" fill="green" />
<polygon points="250,242.487 255,251.147 245,251.147" fill="green" />
<polygon points="255,251.147 250,242.487 260,242.487" fill="green" />
<polygon points="260,242.487 265,251.147 255,251.147" fill="green" />
<polygon points="265,251.147 260,242.487 270,242.487" fill="green" />
<polygon points="270,242.487 275,251.147 265,251.147" fill="green" />
<polygon points="275,251.147 270,242.487 280,242.487" fill="green" />
<polygon points="280,242.487 285,251.147 275,251.147" fill="green" />
<polygon points="285,251.147 280,242.487 290,242.487" fill="green" />
<polygon points="290,242.487 295,251.147 285,251.147" fill="green" />
<polygon points="15,233.827 20,242.487 10,242.487" fill="green" />
<polygon points="20,242.487 15,233.827 25,233.827" fill="green" />
<polygon points="25,233.827 30,242.487 20,242.487" fill="green" />
<polygon points="30,242.487 25,233.827 35,233.827" fill="green" />
<polygon points="35,233.827 40,242.487 30,242.487" fill="green" />
<polygon points="40,242.487 35,233.827 45,233.827" fill="green" />
<polygon points="45,233.827 50,242.487 40,242.487" fill="green" />
<polygon points="50,242.487 45,233.827 55,233.827" fill="green" />
<polygon points="55,233.827 60,242.487 50,242.487" fill="green" />
<polygon points="60,242.487 55,233.827 65,233.827" fill="green" />
<polygon points="65,233.827 70,242.487 60,242.487" fill="green" />
<polygon points="70,242.487 65,233.827 75,233.827" fill="green" />
<polygon points="75,233.827 80,242.487 70,242.487" fill="green" />
<polygon points="80,242.487 75,233.827 85,233.827" fill="green" />
<polygon points="85,233.827 90,242.487 80,242.487" fill="green" />
<polygon points="90,242.487 85,233.827 95,233.827" fill="green" />
<polygon points="95,233.827 100,242.487 90,242.487" fill="green" />
<polygon points="100,242.487 95,233.827 105,233.827" fill="green" />
<polygon points="105,233.827 110,242.487 100,242.487" fill="green" />
<polygon points="110,242.487 105,233.827 115,233.827" fill="green" />
<polygon points="115,233.827 120,242.487 110,242.487" fill="green" />
<polygon points="120,242.487 115,233.827 125,233.827" fill="green" />
<polygon points="125,233.827 130,242.487 120,242.487" fill="green" />
<polygon points="130,242.487 125,233.827 135,233.827" fill="green" />
<polygon points="135,233.827 140,242.487 130,242.487" fill="green" />
<polygon points="140,242.487 135,233.827 145,233.827" fill="green" />
<polygon points="145,233.827 150,242.487 140,242.487" fill="green" />
<polygon points="150,242.487 145,233.827 155,233.827" fill="green" />
<polygon points="155,233.827 160,242.487 150,242.487" fill="green" />
<polygon points="160,242.487 155,233.827 165,233.827" fill="green" />
<polygon points="165,233.827 170,242.487 160,242.487" fill="green" />
<polygon points="170,242.487 165,233.827 175,233.827" fill="green" />
<polygon points="175,233.827 180,242.487 170,242.487" fill="green" />
<polygon points="180,242.487 175,233.827 185,233.827" fill="green" />
<polygon points="185,233.827 190,242.487 180,242.487" fill="green" />
<polygon points="190,242.487 185,233.827 195,233.827" fill="green" />
<polygon points="195,233.827 200,242.487 190,242.487" fill="green" />
<polygon points="200,242.487 195,233.827 205,233.827" fill="green" />
<polygon points="205,233.827 210,242.487 200,242.487" fill="green" />
<polygon points="210,242.487 205,233.827 215,233.827" fill="green" />
<polygon points="215,233.827 220,242.487 210,242.487" fill="green" />
<polygon points="220,242.487 215,233.827 225,233.827" fill="green" />
<polygon points="225,233.827 230,242.487 220,242.487" fill="green" />
<polygon points="230,242.487 225,233.827 235,233.827" fill="green" />
<polygon points="235,233.827 240,242.487 230,242.487" fill="green" />
<polygon points="240,242.487 235,233.827 245,233.827" fill="green" />
<polygon points="245,233.827 250,242.487 240,242.487" fill="green" />
<polygon points="250,242.487 245,233.827 255,233.827" fill="green" />
<polygon points="255,233.827 260,242.487 250,242.487" fill="green" />
<polygon points="260,242.487 255,233.827 265,233.827" fill="green" />
<polygon points="265,233.827 270,242.487 260,242.487" fill="green" />
<polygon points="270,242.487 265,233.827 275,233.827" fill="green" />
<polygon points="275,233.827 280,242.487 270,242.487" fill="green" />
<polygon points="280,242.487 275,233.827 285,233.827" fill="green" />
<polygon points="285,233.827 290,242.487 280,242.487" fill="green" />
<polygon points="20,225.167 25,233.827 15,233.827" fill="green" />
<polygon points="25,233.827 20,225.167 30,225.167" fill="green" />
<polygon points="30,225.167 35,233.827 25,233.827" fill="green" />
<polygon points="35,233.827 30,225.167 40,225.167" fill="green" />
<polygon points="40,225.167 45,233.827 35,233.827" fill="green" />
<polygon points="45,233.827 40,225.167 50,225.167" fill="green" />
<polygon points="50,225.167 55,233.827 45,233.827" fill="green" />
<polygon points="55,233.827 50,225.167 60,225.167" fill="green" />
<polygon points="60,225.167 65,233.827 55,233.827" fill="green" />
<polygon points="65,233.827 60,225.167 70,225.167" fill="green" />
<polygon points="70,225.167 75,233.827 65,233.827" fill="green" />
<polygon points="75,233.827 70,225.167 80,225.167" fill="green" />
<polygon points="80,225.167 85,233.827 75,233.827" fill="green" />
<polygon points="85,233.827 80,225.167 90,225.167" fill="green" />
<polygon points="90,225.167 95,233.827 85,233.827" fill="green" />
<polygon points="95,233.827 90,225.167 100,225.167" fill="green" />
<polygon points="100,225.167 105,233.827 95,233.827" fill="green" />
<polygon points="105,233.827 100,225.167 110,225.167" fill="green" />
<polygon points="110,225.167 115,233.827 105,233.827" fill="green" />
<polygon points="115,233.827 110,225.167 120,225.167" fill="green" />
<polygon points="120,225.167 125,233.827 115,233.827" fill="green" />
<polygon points="125,233.827 120,225.167 130,225.167" fill="green" />
<polygon points="130,225.167 135,233.827 125,233.827" fill="green" />
<polygon points="135,233.827 130,225.167 140,225.167" fill="green" />
<polygon points="140,225.167 145,233.827 135,233.827" fill="green" />
<polygon points="145,233.827 140,225.167 150,225.167" fill="green" />
<polygon points="150,225.167 155,233.827 145,233.827" fill="green" />
<polygon points="155,233.827 150,225.167 160,225.167" fill="green" />
<polygon points="160,225.167 165,233.827 155,233.827" fill="green" />
<polygon points="165,233.827 160,225.167 170,225.167" fill="green" />
<polygon points="170,225.167 175,233.827 165,233.827" fill="green" />
<polygon points="175,233.827 170,225.167 180,225.167" fill="green" />
<polygon points="180,225.167 185,233.827 175,233.827" fill="green" />
<polygon points="185,233.827 180,225.167 190,225.167" fill="green" />
<polygon points="190,225.167 195,233.827 185,233.827" fill="green" />
<polygon points="195,233.827 190,225.167 200,225.167" fill="green" />
<polygon points="200,225.167 205,233.827 195,233.827" fill="green" />
<polygon points="205,233.827 200,225.167 210,225.167" fill="green" />
<polygon points="210,225.167 215,233.827 205,233.827" fill="green" />
<polygon points="215,233.827 210,225.167 220,225.167" fill="green" />
<polygon points="220,225.167 225,233.827 215,233.827" fill="green" />
<polygon points="225,233.827 220,225.167 230,225.167" fill="green" />
<polygon points="230,225.167 235,233.827 225,233.827" fill="green" />
<polygon points="235,233.827 230,225.167 240,225.167" fill="green" />
<polygon points="240,225.167 245,233.827 235,233.827" fill="green" />
<polygon points="245,233.827 240,225.167 250,225.167" fill="green" />
<polygon points="250,225.167 255,233.827 245,233.827" fill="green" />
<polygon points="255,233.827 250,225.167 260,225.167" fill="green" />
<polygon points="260,225.167 265,233.827 255,233.827" fill="green" />
<polygon points="265,233.827 260,225.167 270,225.167" fill="green" />
<polygon points="270,225.167 275,233.827 265,233.827" fill="green" />
<polygon points="275,233.827 270,225.167 280,225.167" fill="green" />
<polygon points="280,225.167 285,233.827 275,233.827" fill="green" />
<polygon points="25,216.506 30,225.167 20,225.167" fill="green" />
<polygon points="30,225.167 25,216.506 35,216.506" fill="green" />
<polygon points="35,216.506 40,225.167 30,225.167" fill="green" />
<polygon points="40,225.167 35,216.506 45,216.506" fill="green" />
<polygon points="45,216.506 50,225.167 40,225.167" fill="green" />
<polygon points="50,225.167 45,216.506 55,216.506" fill="green" />
<polygon points="55,216.506 60,225.167 50,225.167" fill="green" />
<polygon points="60,225.167 55,216.506 65,216.506" fill="green" />
<polygon points="65,216.506 70,225.167 60,225.167" fill="green" />
<polygon points="70,225.167 65,216.506 75,216.506" fill="green" />
<polygon points="75,216.506 80,225.167 70,225.167" fill="green" />
<polygon points="80,225.167 75,216.506 85,216.506" fill="green" />
<polygon points="85,216.506 90,225.167 80,225.167" fill="green" />
<polygon points="90,225.167 85,216.506 95,216.506" fill="green" />
<polygon points="95,216.506 100,225.167 90,225.167" fill="green" />
<polygon points="100,225.167 95,216.506 105,216.506" fill="green" />
<polygon points="105,216.506 110,225.167 100,225.167" fill="green" />
<polygon points="110,225.167 105,216.506 115,216.506" fill="green" />
<polygon points="115,216.506 120,225.167 110,225.167" fill="green" />
<polygon points="120,225.167 115,216.506 125,216.506" fill="green" />
<polygon points="125,216.506 130,225.167 120,225.167" fill="green" />
<polygon points="130,225.167 125,216.506 135,216.506" fill="green" />
<polygon points="135,216.506 140,225.167 130,225.167" fill="green" />
<polygon points="140,225.167 135,216.506 145,216.506" fill="green" />
<polygon points="145,216.506 150,225.167 140,225.167" fill="green" />
<polygon points="150,225.167 145,216.506 155,216.506" fill="green" />
<polygon points="155,216.506 160,225.167 150,225.167" fill="green" />
<polygon points="160,225.167 155,216.506 165,216.506" fill="green" />
<polygon points="165,216.506 170,225.167 160,225.167" fill="green" />
<polygon points="170,225.167 165,216.506 175,216.506" fill="green" />
<polygon points="175,216.506 180,225.167 170,225.167" fill="green" />
<polygon points="180,225.167 175,216.506 185,216.506" fill="green" />
<polygon points="185,216.506 190,225.167 180,225.167" fill="green" />
<polygon points="190,225.167 185,216.506 195,216.506" fill="green" />
<polygon points="195,216.506 200,225.167 190,225.167" fill="green" />
<polygon points="200,225.167 195,216.506 205,216.506" fill="green" />
<polygon points="205,216.506 210,225.167 200,225.167" fill="green" />
<polygon points="210,225.167 205,216.506 215,216.506" fill="green" />
<polygon points="215,216.506 220,225.167 210,225.167" fill="green" />
<polygon points="220,225.167 215,216.506 225,216.506" fill="green" />
<polygon points="225,216.506 230,225.167 220,225.167" fill="green" />
<polygon points="230,225.167 225,216.506 235,216.506" fill="green" />
<polygon points="235,216.506 240,225.167 230,225.167" fill="green" />
<polygon points="240,225.167 235,216.506 245,216.506" fill="green" />
<polygon points="245,216.506 250,225.167 240,225.167" fill="green" />
<polygon points="250,225.167 245,216.506 255,216.506" fill="green" />
<polygon points="255,216.506 260,225.167 250,225.167" fill="green" />
<polygon points="260,225.167 255,216.506 265,216.506" fill="green" />
<polygon points="265,216.506 270,225.167 260,225.167" fill="green" />
<polygon points="270,225.167 265,216.506 275,216.506" fill="green" />
<polygon points="275,216.506 280,225.167 270,225.167" fill="green" />
<polygon points="30,207.846 35,216.506 25,216.506" fill="green" />
<polygon points="35,216.506 30,207.846 40,207.846" fill="green" />
<polygon points="40,207.846 45,216.506 35,216.506" fill="green" />
<polygon points="45,216.506 40,207.846 50,207.846" fill="green" />
<polygon points="50,207.846 55,216.506 45,216.506" fill="green" />
<polygon points="55,216.506 50,207.846 60,207.846" fill="green" />
<polygon points="60,207.846 65,216.506 55,216.506" fill="green" />
<polygon points="65,216.506 60,207.846 70,207.846" fill="green" />
<polygon points="70,207.846 75,216.506 65,216.506" fill="green" />
<polygon points="75,216.506 70,207.846 80,207.846" fill="green" />
<polygon points="80,207.846 85,216.506 75,216.506" fill="green" />
<polygon points="85,216.506 80,207.846 90,207.846" fill="green" />
<polygon points="90,207.846 95,216.506 85,216.506" fill="green" />
<polygon points="95,216.506 90,207.846 100,207.846" fill="green" />
<polygon points="100,207.846 105,216.506 95,216.506" fill="green" />
<polygon points="105,216.506 100,207.846 110,207.846" fill="green" />
<polygon points="110,207.846 115,216.506 105,216.506" fill="green" />
<polygon points="115,216.506 110,207.846 120,207.846" fill="green" />
<polygon points="120,207.846 125,216.506 115,216.506" fill="green" />
<polygon points="125,216.506 120,207.846 130,207.846" fill="green" />
<polygon points="130,207.846 135,216.506 125,216.506" fill="green" />
<polygon points="135,216.506 130,207.846 140,207.846" fill="green" />
<polygon points="140,207.846 145,216.506 135,216.506" fill="green" />
<polygon points="145,216.506 140,207.846 150,207.846" fill="green" />
<polygon points="150,207.846 155,216.506 145,216.506" fill="green" />
<polygon points="155,216.506 150,207.846 160,207.846" fill="green" />
<polygon points="160,207.846 165,216.506 155,216.506" fill="green" />
<polygon points="165,216.506 160,207.846 170,207.846" fill="green" />
<polygon points="170,207.846 175,216.506 165,216.506" fill="green" />
<polygon points="175,216.506 170,207.846 180,207.846" fill="green" />
<polygon points="180,207.846 185,216.506 175,216.506" fill="green" />
<polygon points="185,216.506 180,207.846 190,207.846" fill="green" />
<polygon points="190,207.846 195,216.506 185,216.506" fill="green" />
<polygon points="195,216.506 190,207.846 200,207.846" fill="green" />
<polygon points="200,207.846 205,216.506 195,216.506" fill="green" />
<polygon points="205,216.506 200,207.846 210,207.846" fill="green" />
<polygon points="210,207.846 215,216.506 205,216.506" fill="green" />
<polygon points="215,216.506 210,207.846 220,207.846" fill="green" />
<polygon points="220,207.846 225,216.506 215,216.506" fill="green" />
<polygon points="225,216.506 220,207.846 230,207.846" fill="green" />
<polygon points="230,207.846 235,216.506 225,216.506" fill="green" />
<polygon points="235,216.506 230,207.846 240,207.846" fill="green" />
<polygon points="240,207.846 245,216.506 235,216.506" fill="green" />
<polygon points="245,216.506 240,207.846 250,207.846" fill="green" />
<polygon points="250,207.846 255,216.506 245,216.506" fill="green" />
<polygon points="255,216.506 250,207.846 260,207.846" fill="green" />
<polygon points="260,207.846 265,216.506 255,216.506" fill="green" />
<polygon points="265,216.506 260,207.846 270,207.846" fill="green" />
<polygon points="270,207.846 275,216.506 265,216.506" fill="green" />
<polygon points="35,199.186 40,207.846 30,207.846" fill="green" />
<polygon points="40,207.846 35,199.186 45,199.186" fill="green" />
<polygon points="45,199.186 50,207.846 40,207.846" fill="green" />
<polygon points="50,207.846 45,199.186 55,199.186" fill="green" />
<polygon points="55,199.186 60,207.846 50,207.846" fill="green" />
<polygon points="60,207.846 55,199.186 65,199.186" fill="green" />
<polygon points="65,199.186 70,207.846 60,207.846" fill="green" />
<polygon points="70,207.846 65,199.186 75,199.186" fill="green" />
<polygon points="75,199.186 80,207.846 70,207.846" fill="green" />
<polygon points="80,207.846 75,199.186 85,199.186" fill="green" />
<polygon points="85,199.186 90,207.846 80,207.846" fill="green" />
<polygon points="90,207.846 85,199.186 95,199.186" fill="green" />
<polygon points="95,199.186 100,207.846 90,207.846" fill="green" />
<polygon points="100,207.846 95,199.186 105,199.186" fill="green" />
<polygon points="105,199.186 110,207.846 100,207.846" fill="green" />
<polygon points="110,207.846 105,199.186 115,199.186" fill="green" />
<polygon points="115,199.186 120,207.846 110,207.846" fill="green" />
<polygon points="120,207.846 115,199.186 125,199.186" fill="green" />
<polygon points="125,199.186 130,207.846 120,207.846" fill="green" />
<polygon points="130,207.846 125,199.186 135,199.186" fill="green" />
<polygon points="135,199.186 140,207.846 130,207.846" fill="green" />
<polygon points="140,207.846 135,199.186 145,199.186" fill="green" />
<polygon points="145,199.186 150,207.846 140,207.846" fill="green" />
<polygon points="150,207.846 145,199.186 155,199.186" fill="green" />
<polygon points="155,199.186 160,207.846 150,207.846" fill="green" />
<polygon points="160,207.846 155,199.186 165,199.186" fill="green" />
<polygon points="165,199.186 170,207.846 160,207.846" fill="green" />
<polygon points="170,207.846 165,199.186 175,199.186" fill="green" />
<polygon points="175,199.186 180,207.846 170,207.846" fill="green" />
<polygon points="180,207.846 175,199.186 185,199.186" fill="green" />
<polygon points="185,199.186 190,207.846 180,207.846" fill="green" />
<polygon points="190,207.846 185,199.186 195,199.186" fill="green" />
<polygon points="195,199.186 200,207.846 190,207.846" fill="green" />
<polygon points="200,207.846 195,199.186 205,199.186" fill="green" />
<polygon points="205,199.186 210,207.846 200,207.846" fill="green" />
<polygon points="210,207.846 205,199.186 215,199.186" fill="green" />
<polygon points="215,199.186 220,207.846 210,207.846" fill="green" />
<polygon points="220,207.846 215,199.186 225,199.186" fill="green" />
<polygon points="225,199.186 230,207.846 220,207.846" fill="green" />
<polygon points="230,207.846 225,199.186 235,199.186" fill="green" />
<polygon points="235,199.186 240,207.846 230,207.846" fill="green" />
<polygon points="240,207.846 235,199.186 245,199.186" fill="green" />
<polygon points="245,199.186 250,207.846 240,207.846" fill="green" />
<polygon points="250,207.846 245,199.186 255,199.186" fill="green" />
<polygon points="255,199.186 260,207.846 250,207.846" fill="green" />
<polygon points="260,207.846 255,199.186 265,199.186" fill="green" />
<polygon points="265,199.186 270,207.846 260,207.846" fill="green" />
<polygon points="40,190.526 45,199.186 35,199.186" fill="green" />
<polygon points="45,199.186 40,190.526 50,190.526" fill="green" />
<polygon points="50,190.526 55,199.186 45,199.186" fill="green" />
<polygon points="55,199.186 50,190.526 60,190.526" fill="green" />
<polygon points="60,190.526 65,199.186 55,199.186" fill="green" />
<polygon points="65,199.186 60,190.526 70,190.526" fill="green" />
<polygon points="70,190.526 75,199.186 65,199.186" fill="green" />
<polygon points="75,199.186 70,190.526 80,190.526" fill="green" />
<polygon points="80,190.526 85,199.186 75,199.186" fill="green" />
<polygon points="85,199.186 80,190.526 90,190.526" fill="green" />
<polygon points="90,190.526 95,199.186 85,199.186" fill="green" />
<polygon points="95,199.186 90,190.526 100,190.526" fill="green" />
<polygon points="100,190.526 105,199.186 95,199.186" fill="green" />
<polygon points="105,199.186 100,190.526 110,190.526" fill="green" />
<polygon points="110,190.526 115,199.186 105,199.186" fill="green" />
<polygon points="115,199.186 110,190.526 120,190.526" fill="green" />
<polygon points="120,190.526 125,199.186 115,199.186" fill="green" />
<polygon points="125,199.186 120,190.526 130,190.526" fill="green" />
<polygon points="130,190.526 135,199.186 125,199.186" fill="green" />
<polygon points="135,199.186 130,190.526 140,190.526" fill="green" />
<polygon points="140,190.526 145,199.186 135,199.186" fill="green" />
<polygon points="145,199.186 140,190.526 150,190.526" fill="green" />
<polygon points="150,190.526 155,199.186 145,199.186" fill="green" />
<polygon points="155,199.186 150,190.526 160,190.526" fill="green" />
<polygon points="160,190.526 165,199.186 155,199.186" fill="green" />
<polygon points="165,199.186 160,190.526 170,190.526" fill="green" />
<polygon points="170,190.526 175,199.186 165,199.186" fill="green" />
<polygon points="175,199.186 170,190.526 180,190.526" fill="green" />
<polygon points="180,190.526 185,199.186 175,199.186" fill="green" />
<polygon points="185,199.186 180,190.526 190,190.526" fill="green" />
<polygon points="190,190.526 195,199.186 185,199.186" fill="green" />
<polygon points="195,199.186 190,190.526 200,190.526" fill="green" />
<polygon points="200,190.526 205,199.186 195,199.186" fill="green" />
<polygon points="205,199.186 200,190.526 210,190.526" fill="green" />
<polygon points="210,190.526 215,199.186 205,199.186" fill="green" />
<polygon points="215,199.186 210,190.526 220,190.526" fill="green" />
<polygon points="220,190.526 225,199.186 215,199.186" fill="green" />
<polygon points="225,199.186 220,190.526 230,190.526" fill="green" />
<polygon points="230,190.526 235,199.186 225,199.186" fill="green" />
<polygon points="235,199.186 230,190.526 240,190.526" fill="green" />
<polygon points="240,190.526 245,199.186 235,199.186" fill="green" />
<polygon points="245,199.186 240,190.526 250,190.526" fill="green" />
<polygon points="250,190.526 255,199.186 245,199.186" fill="green" />
<polygon points="255,199.186 250,190.526 260,190.526" fill="green" />
<polygon points="260,190.526 265,199.186 255,199.186" fill="green" />
<polygon points="45,181.865 50,190.526 40,190.526" fill="green" />
<polygon points="50,190.526 45,181.865 55,181.865" fill="green" />
<polygon points="55,181.865 60,190.526 50,190.526" fill="green" />
<polygon points="60,190.526 55,181.865 65,181.865" fill="green" />
<polygon points="65,181.865 70,190.526 60,190.526" fill="green" />
<polygon points="70,190.526 65,181.865 75,181.865" fill="green" />
<polygon points="75,181.865 80,190.526 70,190.526" fill="green" />
<polygon points="80,190.526 75,181.865 85,181.865" fill="green" />
<polygon points="85,181.865 90,190.526 80,190.526" fill="green" />
<polygon points="90,190.526 85,181.865 95,181.865" fill="green" />
<polygon points="95,181.865 100,190.526 90,190.526" fill="green" />
<polygon points="100,190.526 95,181.865 105,181.865" fill="green" />
<polygon points="105,181.865 110,190.526 100,190.526" fill="green" />
<polygon points="110,190.526 105,181.865 115,181.865" fill="green" />
<polygon points="115,181.865 120,190.526 110,190.526" fill="green" />
<polygon points="120,190.526 115,181.865 125,181.865" fill="green" />
<polygon points="125,181.865 130,190.526 120,190.526" fill="green" />
<polygon points="130,190.526 125,181.865 135,181.865" fill="green" />
<polygon points="135,181.865 140,190.526 130,190.526" fill="green" />
<polygon points="140,190.526 135,181.865 145,181.865" fill="green" />
<polygon points="145,181.865 150,190.526 140,190.526" fill="green" />
<polygon points="150,190.526 145,181.865 155,181.865" fill="green" />
<polygon points="155,181.865 160,190.526 150,190.526" fill="green" />
<polygon points="160,190.526 155,181.865 165,181.865" fill="green" />
<polygon points="165,181.865 170,190.526 160,190.526" fill="green" />
<polygon points="170,190.526 165,181.865 175,181.865" fill="green" />
<polygon points="175,181.865 180,190.526 170,190.526" fill="green" />
<polygon points="180,190.526 175,181.865 185,181.865" fill="green" />
<polygon points="185,181.865 190,190.526 180,190.526" fill="green" />
<polygon points="190,190.526 185,181.865 195,181.865" fill="green" />
<polygon points="195,181.865 200,190.526 190,190.526" fill="green" />
<polygon points="200,190.526 195,181.865 205,181.865" fill="green" />
<polygon points="205,181.865 210,190.526 200,190.526" fill="green" />
<polygon points="210,190.526 205,181.865 215,181.865" fill="green" />
<polygon points="215,181.865 220,190.526 210,190.526" fill="green" />
<polygon points="220,190.526 215,181.865 225,181.865" fill="green" />
<polygon points="225,181.865 230,190.526 220,190.526" fill="green" />
<polygon points="230,190.526 225,181.865 235,181.865" fill="green" />
<polygon points="235,181.865 240,190.526 230,190.526" fill="green" />
<polygon points="240,190.526 235,181.865 245,181.865" fill="green" />
<polygon points="245,181.865 250,190.526 240,190.526" fill="green" />
<polygon points="250,190.526 245,181.865 255,181.865" fill="green" />
<polygon points="255,181.865 260,190.526 250,190.526" fill="green" />
<polygon points="50,173.205 55,181.865 45,181.865" fill="green" />
<polygon points="55,181.865 50,173.205 60,173.205" fill="green" />
<polygon points="60,173.205 65,181.865 55,181.865" fill="green" />
<polygon points="65,181.865 60,173.205 70,173.205" fill="green" />
<polygon points="70,173.205 75,181.865 65,181.865" fill="green" />
<polygon points="75,181.865 70,173.205 80,173.205" fill="green" />
<polygon points="80,173.205 85,181.865 75,181.865" fill="green" />
<polygon points="85,181.865 80,173.205 90,173.205" fill="green" />
<polygon points="90,173.205 95,181.865 85,181.865" fill="green" />
<polygon points="95,181.865 90,173.205 100,173.205" fill="green" />
<polygon points="100,173.205 105,181.865 95,181.865" fill="green" />
<polygon points="105,181.865 100,173.205 110,173.205" fill="green" />
<polygon points="110,173.205 115,181.865 105,181.865" fill="green" />
<polygon points="115,181.865 110,173.205 120,173.205" fill="green" />
<polygon points="120,173.205 125,181.865 115,181.865" fill="green" />
<polygon points="125,181.865 120,173.205 130,173.205" fill="green" />
<polygon points="130,173.205 135,181.865 125,181.865" fill="green" />
<polygon points="135,181.865 130,173.205 140,173.205" fill="green" />
<polygon points="140,173.205 145,181.865 135,181.865" fill="green" />
<polygon points="145,181.865 140,173.205 150,173.205" fill="green" />
<polygon points="150,173.205 155,181.865 145,181.865" fill="green" />
<polygon points="155,181.865 150,173.205 160,173.205" fill="green" />
<polygon points="160,173.205 165,181.865 155,181.865" fill="green" />
<polygon points="165,181.865 160,173.205 170,173.205" fill="green" />
<polygon points="170,173.205 175,181.865 165,181.865" fill="green" />
<polygon points="175,181.865 170,173.205 180,173.205" fill="green" />
<polygon points="180,173.205 185,181.865 175,181.865" fill="green" />
<polygon points="185,181.865 180,173.205 190,173.205" fill="green" />
<polygon points="190,173.205 195,181.865 185,181.865" fill="green" />
<polygon points="195,181.865 190,173.205 200,173.205" fill="green" />
<polygon points="200,173.205 205,181.865 195,181.865" fill="green" />
<polygon points="205,181.865 200,173.205 210,173.205" fill="green" />
<polygon points="210,173.205 215,181.865 205,181.865" fill="green" />
<polygon points="215,181.865 210,173.205 220,173.205" fill="green" />
<polygon points="220,173.205 225,181.865 215,181.865" fill="green" />
<polygon points="225,181.865 220,173.205 230,173.205" fill="green" />
<polygon points="230,173.205 235,181.865 225,181.865" fill="green" />
<polygon points="235,181.865 230,173.205 240,173.205" fill="green" />
<polygon points="240,173.205 245,181.865 235,181.865" fill="green" />
<polygon points="245,181.865 240,173.205 250,173.205" fill="green" />
<polygon points="250,173.205 255,181.865 245,181.865" fill="green" />
<polygon points="55,164.545 60,173.205 50,173.205" fill="green" />
<polygon points="60,173.205 55,164.545 65,164.545" fill="green" />
<polygon points="65,164.545 70,173.205 60,173.205" fill="green" />
<polygon points="70,173.205 65,164.545 75,164.545" fill="green" />
<polygon points="75,164.545 80,173.205 70,173.205" fill="green" />
<polygon points="80,173.205 75,164.545 85,164.545" fill="green" />
<polygon points="85,164.545 90,173.205 80,173.205" fill="green" />
<polygon points="90,173.205 85,164.545 95,164.545" fill="green" />
<polygon points="95,164.545 100,173.205 90,173.205" fill="green" />
<polygon points="100,173.205 95,164.545 105,164.545" fill="green" />
<polygon points="105,164.545 110,173.205 100,173.205" fill="green" />
<polygon points="110,173.205 105,164.545 115,164.545" fill="green" />
<polygon points="115,164.545 120,173.205 110,173.205" fill="green" />
<polygon points="120,173.205 115,164.545 125,164.545" fill="green" />
<polygon points="125,164.545 130,173.205 120,173.205" fill="green" />
<polygon points="130,173.205 125,164.545 135,164.545" fill="green" />
<polygon points="135,164.545 140,173.205 130,173.205" fill="green" />
<polygon points="140,173.205 135,164.545 145,164.545" fill="green" />
<polygon points="145,164.545 150,173.205 140,173.205" fill="green" />
<polygon points="150,173.205 145,164.545 155,164.545" fill="green" />
<polygon points="155,164.545 160,173.205 150,173.205" fill="green" />
<polygon points="160,173.205 155,164.545 165,164.545" fill="green" />
<polygon points="165,164.545 170,173.205 160,173.205" fill="green" />
<polygon points="170,173.205 165,164.545 175,164.545" fill="green" />
<polygon points="175,164.545 180,173.205 170,173.205" fill="green" />
<polygon points="180,173.205 175,164.545 185,164.545" fill="green" />
<polygon points="185,164.545 190,173.205 180,173.205" fill="green" />
<polygon points="190,173.205 185,164.545 195,164.545" fill="green" />
<polygon points="195,164.545 200,173.205 190,173.205" fill="green" />
<polygon points="200,173.205 195,164.545 205,164.545" fill="green" />
<polygon points="205,164.545 210,173.205 200,173.205" fill="green" />
<polygon points="210,173.205 205,164.545 215,164.545" fill="green" />
<polygon points="215,164.545 220,173.205 210,173.205" fill="green" />
<polygon points="220,173.205 215,164.545 225,164.545" fill="green" />
<polygon points="225,164.545 230,173.205 220,173.205" fill="green" />
<polygon points="230,173.205 225,164.545 235,164.545" fill="green" />
<polygon points="235,164.545 240,173.205 230,173.205" fill="green" />
<polygon points="240,173.205 235,164.545 245,164.545" fill="green" />
<polygon points="245,164.545 250,173.205 240,173.205" fill="green" />
<polygon points="60,155.885 65,164.545 55,164.545" fill="green" />
<polygon points="65,164.545 60,155.885 70,155.885" fill="green" />
<polygon points="70,155.885 75,164.545 65,164.545" fill="green" />
<polygon points="75,164.545 70,155.885 80,155.885" fill="green" />
<polygon points="80,155.885 85,164.545 75,164.545" fill="green" />
<polygon points="85,164.545 80,155.885 90,155.885" fill="green" />
<polygon points="90,155.885 95,164.545 85,164.545" fill="green" />
<polygon points="95,164.545 90,155.885 100,155.885" fill="green" />
<polygon points="100,155.885 105,164.545 95,164.545" fill="green" />
<polygon points="105,164.545 100,155.885 110,155.885" fill="green" />
<polygon points="110,155.885 115,164.545 105,164.545" fill="green" />
<polygon points="115,164.545 110,155.885 120,155.885" fill="green" />
<polygon points="120,155.885 125,164.545 115,164.545" fill="green" />
<polygon points="125,164.545 120,155.885 130,155.885" fill="green" />
<polygon points="130,155.885 135,164.545 125,164.545" fill="green" />
<polygon points="135,164.545 130,155.885 140,155.885" fill="green" />
<polygon points="140,155.885 145,164.545 135,164.545" fill="green" />
<polygon points="145,164.545 140,155.885 150,155.885" fill="green" />
<polygon points="150,155.885 155,164.545 145,164.545" fill="green" />
<polygon points="155,164.545 150,155.885 160,155.885" fill="green" />
<polygon points="160,155.885 165,164.545 155,164.545" fill="green" />
<polygon points="165,164.545 160,155.885 170,155.885" fill="green" />
<polygon points="170,155.885 175,164.545 165,164.545" fill="green" />
<polygon points="175,164.545 170,155.885 180,155.885" fill="green" />
<polygon points="180,155.885 185,164.545 175,164.545" fill="green" />
<polygon points="185,164.545 180,155.885 190,155.885" fill="green" />
<polygon points="190,155.885 195,164.545 185,164.545" fill="green" />
<polygon points="195,164.545 190,155.885 200,155.885" fill="green" />
<polygon points="200,155.885 205,164.545 195,164.545" fill="green" />
<polygon points="205,164.545 200,155.885 210,155.885" fill="green" />
<polygon points="210,155.885 215,164.545 205,164.545" fill="green" />
<polygon points="215,164.545 210,155.885 220,155.885" fill="green" />
<polygon points="220,155.885 225,164.545 215,164.545" fill="green" />
<polygon points="225,164.545 220,155.885 230,155.885" fill="green" />
<polygon points="230,155.885 235,164.545 225,164.545" fill="green" />
<polygon points="235,164.545 230,155.885 240,155.885" fill="green" />
<polygon points="240,155.885 245,164.545 235,164.545" fill="green" />
<polygon points="65,147.224 70,155.885 60,155.885" fill="green" />
<polygon points="70,155.885 65,147.224 75,147.224" fill="green" />
<polygon points="75,147.224 80,155.885 70,155.885" fill="green" />
<polygon points="80,155.885 75,147.224 85,147.224" fill="green" />
<polygon points="85,147.224 90,155.885 80,155.885" fill="green" />
<polygon points="90,155.885 85,147.224 95,147.224" fill="green" />
<polygon points="95,147.224 100,155.885 90,155.885" fill="green" />
<polygon points="100,155.885 95,147.224 105,147.224" fill="green" />
<polygon points="105,147.224 110,155.885 100,155.885" fill="green" />
<polygon points="110,155.885 105,147.224 115,147.224" fill="green" />
<polygon points="115,147.224 120,155.885 110,155.885" fill="green" />
<polygon points="120,155.885 115,147.224 125,147.224" fill="green" />
<polygon points="125,147.224 130,155.885 120,155.885" fill="green" />
<polygon points="130,155.885 125,147.224 135,147.224" fill="green" />
<polygon points="135,147.224 140,155.885 130,155.885" fill="green" />
<polygon points="140,155.885 135,147.224 145,147.224" fill="green" />
<polygon points="145,147.224 150,155.885 140,155.885" fill="green" />
<polygon points="150,155.885 145,147.224 155,147.224" fill="green" />
<polygon points="155,147.224 160,155.885 150,155.885" fill="green" />
<polygon points="160,155.885 155,147.224 165,147.224" fill="green" />
<polygon points="165,147.224 170,155.885 160,155.885" fill="green" />
<polygon points="170,155.885 165,147.224 175,147.224" fill="green" />
<polygon points="175,147.224 180,155.885 170,155.885" fill="green" />
<polygon points="180,155.885 175,147.224 185,147.224" fill="green" />
<polygon points="185,147.224 190,155.885 180,155.885" fill="green" />
<polygon points="190,155.885 185,147.224 195,147.224" fill="green" />
<polygon points="195,147.224 200,155.885 190,155.885" fill="green" />
<polygon points="200,155.885 195,147.224 205,147.224" fill="green" />
<polygon points="205,147.224 210,155.885 200,155.885" fill="green" />
<polygon points="210,155.885 205,147.224 215,147.224" fill="green" />
<polygon points="215,147.224 220,155.885 210,155.885" fill="green" />
<polygon points="220,155.885 215,147.224 225,147.224" fill="green" />
<polygon points="225,147.224 230,155.885 220,155.885" fill="green" />
<polygon points="230,155.885 225,147.224 235,147.224" fill="green" />
<polygon points="235,147.224 240,155.885 230,155.885" fill="green" />
<polygon points="70,138.564 75,147.224 65,147.224" fill="green" />
<polygon points="75,147.224 70,138.564 80,138.564" fill="green" />
<polygon points="80,138.564 85,147.224 75,147.224" fill="green" />
<polygon points="85,147.224 80,138.564 90,138.564" fill="green" />
<polygon points="90,138.564 95,147.224 85,147.224" fill="green" />
<polygon points="95,147.224 90,138.564 100,138.564" fill="green" />
<polygon points="100,138.564 105,147.224 95,147.224" fill="green" />
<polygon points="105,147.224 100,138.564 110,138.564" fill="green" />
<polygon points="110,138.564 115,147.224 105,147.224" fill="green" />
<polygon points="115,147.224 110,138.564 120,138.564" fill="green" />
<polygon points="120,138.564 125,147.224 115,147.224" fill="green" />
<polygon points="125,147.224 120,138.564 130,138.564" fill="green" />
<polygon points="130,138.564 135,147.224 125,147.224" fill="green" />
<polygon points="135,147.224 130,138.564 140,138.564" fill="green" />
<polygon points="140,138.564 145,147.224 135,147.224" fill="green" />
<polygon points="145,147.224 140,138.564 150,138.564" fill="green" />
<polygon points="150,138.564 155,147.224 145,147.224" fill="green" />
<polygon points="155,147.224 150,138.564 160,138.564" fill="green" />
<polygon points="160,138.564 165,147.224 155,147.224" fill="green" />
<polygon points="165,147.224 160,138.564 170,138.564" fill="green" />
<polygon points="170,138.564 175,147.224 165,147.224" fill="green" />
<polygon points="175,147.224 170,138.564 180,138.564" fill="green" />
<polygon points="180,138.564 185,147.224 175,147.224" fill="green" />
<polygon points="185,147.224 180,138.564 190,138.564" fill="green" />
<polygon points="190,138.564 195,147.224 185,147.224" fill="green" />
<polygon points="195,147.224 190,138.564 200,138.564" fill="green" />
<polygon points="200,138.564 205,147.224 195,147.224" fill="green" />
<polygon points="205,147.224 200,138.564 210,138.564" fill="green" />
<polygon points="210,138.564 215,147.224 205,147.224" fill="green" />
<polygon points="215,147.224 210,138.564 220,138.564" fill="green" />
<polygon points="220,138.564 225,147.224 215,147.224" fill="green" />
<polygon points="225,147.224 220,138.564 230,138.564" fill="green" />
<polygon points="230,138.564 235,147.224 225,147.224" fill="green" />
<polygon points="75,129.904 80,138.564 70,138.564" fill="green" />
<polygon points="80,138.564 75,129.904 85,129.904" fill="green" />
<polygon points="85,129.904 90,138.564 80,138.564" fill="green" />
<polygon points="90,138.564 85,129.904 95,129.904" fill="green" />
<polygon points="95,129.904 100,138.564 90,138.564" fill="green" />
<polygon points="100,138.564 95,129.904 105,129.904" fill="green" />
<polygon points="105,129.904 110,138.564 100,138.564" fill="green" />
<polygon points="110,138.564 105,129.904 115,129.904" fill="green" />
<polygon points="115,129.904 120,138.564 110,138.564" fill="green" />
<polygon points="120,138.564 115,129.904 125,129.904" fill="green" />
<polygon points="125,129.904 130,138.564 120,138.564" fill="green" />
<polygon points="130,138.564 125,129.904 135,129.904" fill="green" />
<polygon points="135,129.904 140,138.564 130,138.564" fill="green" />
<polygon points="140,138.564 135,129.904 145,129.904" fill="green" />
<polygon points="145,129.904 150,138.564 140,138.564" fill="green" />
<polygon points="150,138.564 145,129.904 155,129.904" fill="green" />
<polygon points="155,129.904 160,138.564 150,138.564" fill="green" />
<polygon points="160,138.564 155,129.904 165,129.904" fill="green" />
<polygon points="165,129.904 170,138.564 160,138.564" fill="green" />
<polygon points="170,138.564 165,129.904 175,129.904" fill="green" />
<polygon points="175,129.904 180,138.564 170,138.564" fill="green" />
<polygon points="180,138.564 175,129.904 185,129.904" fill="green" />
<polygon points="185,129.904 190,138.564 180,138.564" fill="green" />
<polygon points="190,138.564 185,129.904 195,129.904" fill="green" />
<polygon points="195,129.904 200,138.564 190,138.564" fill="green" />
<polygon points="200,138.564 195,129.904 205,129.904" fill="green" />
<polygon points="205,129.904 210,138.564 200,138.564" fill="green" />
<polygon points="210,138.564 205,129.904 215,129.904" fill="green" />
<polygon points="215,129.904 220,138.564 210,138.564" fill="green" />
<polygon points="220,138.564 215,129.904 225,129.904" fill="green" />
<polygon points="225,129.904 230,138.564 220,138.564" fill="green" />
<polygon points="80,121.244 85,129.904 75,129.904" fill="green" />
<polygon points="85,129.904 80,121.244 90,121.244" fill="green" />
<polygon points="90,121.244 95,129.904 85,129.904" fill="green" />
<polygon points="95,129.904 90,121.244 100,121.244" fill="green" />
<polygon points="100,121.244 105,129.904 95,129.904" fill="green" />
<polygon points="105,129.904 100,121.244 110,121.244" fill="green" />
<polygon points="110,121.244 115,129.904 105,129.904" fill="green" />
<polygon points="115,129.904 110,121.244 120,121.244" fill="green" />
<polygon points="120,121.244 125,129.904 115,129.904" fill="green" />
<polygon points="125,129.904 120,121.244 130,121.244" fill="green" />
<polygon points="130,121.244 135,129.904 125,129.904" fill="green" />
<polygon points="135,129.904 130,121.244 140,121.244" fill="green" />
<polygon points="140,121.244 145,129.904 135,129.904" fill="green" />
<polygon points="145,129.904 140,121.244 150,121.244" fill="green" />
<polygon points="150,121.244 155,129.904 145,129.904" fill="green" />
<polygon points="155,129.904 150,121.244 160,121.244" fill="green" />
<polygon points="160,121.244 165,129.904 155,129.904" fill="green" />
<polygon points="165,129.904 160,121.244 170,121.244" fill="green" />
<polygon points="170,121.244 175,129.904 165,129.904" fill="green" />
<polygon points="175,129.904 170,121.244 180,121.244" fill="green" />
<polygon points="180,121.244 185,129.904 175,129.904" fill="green" />
<polygon points="185,129.904 180,121.244 190,121.244" fill="green" />
<polygon points="190,121.244 195,129.904 185,129.904" fill="green" />
<polygon points="195,129.904 190,121.244 200,121.244" fill="green" />
<polygon points="200,121.244 205,129.904 195,129.904" fill="green" />
<polygon points="205,129.904 200,121.244 210,121.244" fill="green" />
<polygon points="210,121.244 215,129.904 205,129.904" fill="green" />
<polygon points="215,129.904 210,121.244 220,121.244" fill="green" />
<polygon points="220,121.244 225,129.904 215,129.904" fill="green" />
<polygon points="85,112.583 90,121.244 80,121.244" fill="green" />
<polygon points="90,121.244 85,112.583 95,112.583" fill="green" />
<polygon points="95,112.583 100,121.244 90,121.244" fill="green" />
<polygon points="100,121.244 95,112.583 105,112.583" fill="green" />
<polygon points="105,112.583 110,121.244 100,121.244" fill="green" />
<polygon points="110,121.244 105,112.583 115,112.583" fill="green" />
<polygon points="115,112.583 120,121.244 110,121.244" fill="green" />
<polygon points="120,121.244 115,112.583 125,112.583" fill="green" />
<polygon points="125,112.583 130,121.244 120,121.244" fill="green" />
<polygon points="130,121.244 125,112.583 135,112.583" fill="green" />
<polygon points="135,112.583 140,121.244 130,121.244" fill="green" />
<polygon points="140,121.244 135,112.583 145,112.583" fill="green" />
<polygon points="145,112.583 150,121.244 140,121.244" fill="green" />
<polygon points="150,121.244 145,112.583 155,112.583" fill="green" />
<polygon points="155,112.583 160,121.244 150,121.244" fill="green" />
<polygon points="160,121.244 155,112.583 165,112.583" fill="green" />
<polygon points="165,112.583 170,121.244 160,121.244" fill="green" />
<polygon points="170,121.244 165,112.583 175,112.583" fill="green" />
<polygon points="175,112.583 180,121.244 170,121.244" fill="green" />
<polygon points="180,121.244 175,112.583 185,112.583" fill="green" />
<polygon points="185,112.583 190,121.244 180,121.244" fill="green" />
<polygon points="190,121.244 185,112.583 195,112.583" fill="green" />
<polygon points="195,112.583 200,121.244 190,121.244" fill="green" />
<polygon points="200,121.244 195,112.583 205,112.583" fill="green" />
<polygon points="205,112.583 210,121.244 200,121.244" fill="green" />
<polygon points="210,121.244 205,112.583 215,112.583" fill="green" />
<polygon points="215,112.583 220,121.244 210,121.244" fill="green" />
<polygon points="90,103.923 95,112.583 85,112.583" fill="green" />
<polygon points="95,112.583 90,103.923 100,103.923" fill="green" />
<polygon points="100,103.923 105,112.583 95,112.583" fill="green" />
<polygon points="105,112.583 100,103.923 110,103.923" fill="green" />
<polygon points="110,103.923 115,112.583 105,112.583" fill="green" />
<polygon points="115,112.583 110,103.923 120,103.923" fill="green" />
<polygon points="120,103.923 125,112.583 115,112.583" fill="green" />
<polygon points="125,112.583 120,103.923 130,103.923" fill="green" />
<polygon points="130,103.923 135,112.583 125,112.583" fill="green" />
<polygon points="135,112.583 130,103.923 140,103.923" fill="green" />
<polygon points="140,103.923 145,112.583 135,112.583" fill="green" />
<polygon points="145,112.583 140,103.923 150,103.923" fill="green" />
<polygon points="150,103.923 155,112.583 145,112.583" fill="green" />
<polygon points="155,112.583 150,103.923 160,103.923" fill="green" />
<polygon points="160,103.923 165,112.583 155,112.583" fill="green" />
<polygon points="165,112.583 160,103.923 170,103.923" fill="green" />
<polygon points="170,103.923 175,112.583 165,112.583" fill="green" />
<polygon points="175,112.583 170,103.923 180,103.923" fill="green" />
<polygon points="180,103.923 185,112.583 175,112.583" fill="green" />
<polygon points="185,112.583 180,103.923 190,103.923" fill="green" />
<polygon points="190,103.923 195,112.583 185,112.583" fill="green" />
<polygon points="195,112.583 190,103.923 200,103.923" fill="green" />
<polygon points="200,103.923 205,112.583 195,112.583" fill="green" />
<polygon points="205,112.583 200,103.923 210,103.923" fill="green" />
<polygon points="210,103.923 215,112.583 205,112.583" fill="green" />
<polygon points="95,95.2628 100,103.923 90,103.923" fill="green" />
<polygon points="100,103.923 95,95.2628 105,95.2628" fill="green" />
<polygon points="105,95.2628 110,103.923 100,103.923" fill="green" />
<polygon points="110,103.923 105,95.2628 115,95.2628" fill="green" />
<polygon points="115,95.2628 120,103.923 110,103.923" fill="green" />
<polygon points="120,103.923 115,95.2628 125,95.2628" fill="green" />
<polygon points="125,95.2628 130,103.923 120,103.923" fill="green" />
<polygon points="130,103.923 125,95.2628 135,95.2628" fill="green" />
<polygon points="135,95.2628 140,103.923 130,103.923" fill="green" />
<polygon points="140,103.923 135,95.2628 145,95.2628" fill="green" />
<polygon points="145,95.2628 150,103.923 140,103.923" fill="green" />
<polygon points="150,103.923 145,95.2628 155,95.2628" fill="green" />
<polygon points="155,95.2628 160,103.923 150,103.923" fill="green" />
<polygon points="160,103.923 155,95.2628 165,95.2628" fill="green" />
<polygon points="165,95.2628 170,103.923 160,103.923" fill="green" />
<polygon points="170,103.923 165,95.2628 175,95.2628" fill="green" />
<polygon points="175,95.2628 180,103.923 170,103.923" fill="green" />
<polygon points="180,103.923 175,95.2628 185,95.2628" fill="green" />
<polygon points="185,95.2628 190,103.923 180,103.923" fill="green" />
<polygon points="190,103.923 185,95.2628 195,95.2628" fill="green" />
<polygon points="195,95.2628 200,103.923 190,103.923" fill="green" />
<polygon points="200,103.923 195,95.2628 205,95.2628" fill="green" />
<polygon points="205,95.2628 210,103.923 200,103.923" fill="green" />
<polygon points="100,86.6025 105,95.2628 95,95.2628" fill="green" />
<polygon points="105,95.2628 100,86.6025 110,86.6025" fill="green" />
<polygon points="110,86.6025 115,95.2628 105,95.2628" fill="green" />
<polygon points="115,95.2628 110,86.6025 120,86.6025" fill="green" />
<polygon points="120,86.6025 125,95.2628 115,95.2628" fill="green" />
<polygon points="125,95.2628 120,86.6025 130,86.6025" fill="green" />
<polygon points="130,86.6025 135,95.2628 125,95.2628" fill="green" />
<polygon points="135,95.2628 130,86.6025 140,86.6025" fill="green" />
<polygon points="140,86.6025 145,95.2628 135,95.2628" fill="green" />
<polygon points="145,95.2628 140,86.6025 150,86.6025" fill="green" />
<polygon points="150,86.6025 155,95.2628 145,95.2628" fill="green" />
<polygon points="155,95.2628 150,86.6025 160,86.6025" fill="green" />
<polygon points="160,86.6025 165,95.2628 155,95.2628" fill="green" />
<polygon points="165,95.2628 160,86.6025 170,86.6025" fill="green" />
<polygon points="170,86.6025 175,95.2628 165,95.2628" fill="green" />
<polygon points="175,95.2628 170,86.6025 180,86.6025" fill="green" />
<polygon points="180,86.6025 185,95.2628 175,95.2628" fill="green" />
<polygon points="185,95.2628 180,86.6025 190,86.6025" fill="green" />
<polygon points="190,86.6025 195,95.2628 185,95.2628" fill="green" />
<polygon points="195,95.2628 190,86.6025 200,86.6025" fill="green" />
<polygon points="200,86.6025 205,95.2628 195,95.2628" fill="green" />
<polygon points="105,77.9423 110,86.6025 100,86.6025" fill="green" />
<polygon points="110,86.6025 105,77.9423 115,77.9423" fill="green" />
<polygon points="115,77.9423 120,86.6025 110,86.6025" fill="green" />
<polygon points="120,86.6025 115,77.9423 125,77.9423" fill="green" />
<polygon points="125,77.9423 130,86.6025 120,86.6025" fill="green" />
<polygon points="130,86.6025 125,77.9423 135,77.9423" fill="green" />
<polygon points="135,77.9423 140,86.6025 130,86.6025" fill="green" />
<polygon points="140,86.6025 135,77.9423 145,77.9423" fill="green" />
<polygon points="145,77.9423 150,86.6025 140,86.6025" fill="green" />
<polygon points="150,86.6025 145,77.9423 155,77.9423" fill="green" />
<polygon points="155,77.9423 160,86.6025 150,86.6025" fill="green" />
<polygon points="160,86.6025 155,77.9423 165,77.9423" fill="green" />
<polygon points="165,77.9423 170,86.6025 160,86.6025" fill="green" />
<polygon points="170,86.6025 165,77.9423 175,77.9423" fill="green" />
<polygon points="175,77.9423 180,86.6025 170,86.6025" fill="green" />
<polygon points="180,86.6025 175,77.9423 185,77.9423" fill="green" />
<polygon points="185,77.9423 190,86.6025 180,86.6025" fill="green" />
<polygon points="190,86.6025 185,77.9423 195,77.9423" fill="green" />
<polygon points="195,77.9423 200,86.6025 190,86.6025" fill="green" />
<polygon points="110,69.282 115,77.9423 105,77.9423" fill="green" />
<polygon points="115,77.9423 110,69.282 120,69.282" fill="green" />
<polygon points="120,69.282 125,77.9423 115,77.9423" fill="green" />
<polygon points="125,77.9423 120,69.282 130,69.282" fill="green" />
<polygon points="130,69.282 135,77.9423 125,77.9423" fill="green" />
<polygon points="135,77.9423 130,69.282 140,69.282" fill="green" />
<polygon points="140,69.282 145,77.9423 135,77.9423" fill="green" />
<polygon points="145,77.9423 140,69.282 150,69.282" fill="green" />
<polygon points="150,69.282 155,77.9423 145,77.9423" fill="green" />
<polygon points="155,77.9423 150,69.282 160,69.282" fill="green" />
<polygon points="160,69.282 165,77.9423 155,77.9423" fill="green" />
<polygon points="165,77.9423 160,69.282 170,69.282" fill="green" />
<polygon points="170,69.282 175,77.9423 165,77.9423" fill="green" />
<polygon points="175,77.9423 170,69.282 180,69.282" fill="green" />
<polygon points="180,69.282 185,77.9423 175,77.9423" fill="green" />
<polygon points="185,77.9423 180,69.282 190,69.282" fill="green" />
<polygon points="190,69.282 195,77.9423 185,77.9423" fill="green" />
<polygon points="115,60.6218 120,69.282 110,69.282" fill="green" />
<polygon points="120,69.282 115,60.6218 125,60.6218" fill="green" />
<polygon points="125,60.6218 130,69.282 120,69.282" fill="green" />
<polygon points="130,69.282 125,60.6218 135,60.6218" fill="green" />
<polygon points="135,60.6218 140,69.282 130,69.282" fill="green" />
<polygon points="140,69.282 135,60.6218 145,60.6218" fill="green" />
<polygon points="145,60.6218 150,69.282 140,69.282" fill="green" />
<polygon points="150,69.282 145,60.6218 155,60.6218" fill="green" />
<polygon points="155,60.6218 160,69.282 150,69.282" fill="green" />
<polygon points="160,69.282 155,60.6218 165,60.6218" fill="green" />
<polygon points="165,60.6218 170,69.282 160,69.282" fill="green" />
<polygon points="170,69.282 165,60.6218 175,60.6218" fill="green" />
<polygon points="175,60.6218 180,69.282 170,69.282" fill="green" />
<polygon points="180,69.282 175,60.6218 185,60.6218" fill="green" />
<polygon points="185,60.6218 190,69.282 180,69.282" fill="green" />
<polygon points="120,51.9615 125,60.6218 115,60.6218" fill="green" />
<polygon points="125,60.6218 120,51.9615 130,51.9615" fill="green" />
<polygon points="130,51.9615 135,60.6218 125,60.6218" fill="green" />
<polygon points="135,60.6218 130,51.9615 140,51.9615" fill="green" />
<polygon points="140,51.9615 145,60.6218 135,60.6218" fill="green" />
<polygon points="145,60.6218 140,51.9615 150,51.9615" fill="green" />
<polygon points="150,51.9615 155,60.6218 145,60.6218" fill="green" />
<polygon points="155,60.6218 150,51.9615 160,51.9615" fill="green" />
<polygon points="160,51.9615 165,60.6218 155,60.6218" fill="green" />
<polygon points="165,60.6218 160,51.9615 170,51.9615" fill="green" />
<polygon points="170,51.9615 175,60.6218 165,60.6218" fill="green" />
<polygon points="175,60.6218 170,51.9615 180,51.9615" fill="green" />
<polygon points="180,51.9615 185,60.6218 175,60.6218" fill="green" />
<polygon points="125,43.3013 130,51.9615 120,51.9615" fill="green" />
<polygon points="130,51.9615 125,43.3013 135,43.3013" fill="green" />
<polygon points="135,43.3013 140,51.9615 130,51.9615" fill="green" />
<polygon points="140,51.9615 135,43.3013 145,43.3013" fill="green" />
<polygon points="145,43.3013 150,51.9615 140,51.9615" fill="green" />
<polygon points="150,51.9615 145,43.3013 155,43.3013" fill="green" />
<polygon points="155,43.3013 160,51.9615 150,51.9615" fill="green" />
<polygon points="160,51.9615 155,43.3013 165,43.3013" fill="green" />
<polygon points="165,43.3013 170,51.9615 160,51.9615" fill="green" />
<polygon points="170,51.9615 165,43.3013 175,43.3013" fill="green" />
<polygon points="175,43.3013 180,51.9615 170,51.9615" fill="green" />
<polygon points="130,34.641 135,43.3013 125,43.3013" fill="green" />
<polygon points="135,43.3013 130,34.641 140,34.641" fill="green" />
<polygon points="140,34.641 145,43.3013 135,43.3013" fill="green" />
<polygon points="145,43.3013 140,34.641 150,34.641" fill="green" />
<polygon points="150,34.641 155,43.3013 145,43.3013" fill="green" />
<polygon points="155,43.3013 150,34.641 160,34.641" fill="green" />
<polygon points="160,34.641 165,43.3013 155,43.3013" fill="green" />
<polygon points="165,43.3013 160,34.641 170,34.641" fill="green" />
<polygon points="170,34.641 175,43.3013 165,43.3013" fill="green" />
<polygon points="135,25.9808 140,34.641 130,34.641" fill="green" />
<polygon points="140,34.641 135,25.9808 145,25.9808" fill="green" />
<polygon points="145,25.9808 150,34.641 140,34.641" fill="green" />
<polygon points="150,34.641 145,25.9808 155,25.9808" fill="green" />
<polygon points="155,25.9808 160,34.641 150,34.641" fill="green" />
<polygon points="160,34.641 155,25.9808 165,25.9808" fill="green" />
<polygon points="165,25.9808 170,34.641 160,34.641" fill="green" />
<polygon points="140,17.3205 145,25.9808 135,25.9808" fill="green" />
<polygon points="145,25.9808 140,17.3205 150,17.3205" fill="green" />
<polygon points="150,17.3205 155,25.9808 145,25.9808" fill="green" />
<polygon points="155,25.9808 150,17.3205 160,17.3205" fill="green" />
<polygon points="160,17.3205 165,25.9808 155,25.9808" fill="green" />
<polygon points="145,8.66025 150,17.3205 140,17.3205" fill="green" />
<polygon points="150,17.3205 145,8.66025 155,8.66025" fill="green" />
<polygon points="155,8.66025 160,17.3205 150,17.3205" fill="green" />
</svg>